<svg aria-roledescription="class" role="graphics-document document" viewBox="0 0 1035.66015625 729" style="max-width: 1035.66px; background-color: white;" class="classDiagram" xmlns:xlink="http://www.w3.org/1999/xlink" xmlns="http://www.w3.org/2000/svg" width="100%" id="my-svg"><style>#my-svg{font-family:"trebuchet ms",verdana,arial,sans-serif;font-size:16px;fill:#333;}#my-svg .error-icon{fill:#552222;}#my-svg .error-text{fill:#552222;stroke:#552222;}#my-svg .edge-thickness-normal{stroke-width:1px;}#my-svg .edge-thickness-thick{stroke-width:3.5px;}#my-svg .edge-pattern-solid{stroke-dasharray:0;}#my-svg .edge-thickness-invisible{stroke-width:0;fill:none;}#my-svg .edge-pattern-dashed{stroke-dasharray:3;}#my-svg .edge-pattern-dotted{stroke-dasharray:2;}#my-svg .marker{fill:#333333;stroke:#333333;}#my-svg .marker.cross{stroke:#333333;}#my-svg svg{font-family:"trebuchet ms",verdana,arial,sans-serif;font-size:16px;}#my-svg p{margin:0;}#my-svg g.classGroup text{fill:#9370DB;stroke:none;font-family:"trebuchet ms",verdana,arial,sans-serif;font-size:10px;}#my-svg g.classGroup text .title{font-weight:bolder;}#my-svg .nodeLabel,#my-svg .edgeLabel{color:#131300;}#my-svg .edgeLabel .label rect{fill:#ECECFF;}#my-svg .label text{fill:#131300;}#my-svg .labelBkg{background:#ECECFF;}#my-svg .edgeLabel .label span{background:#ECECFF;}#my-svg .classTitle{font-weight:bolder;}#my-svg .node rect,#my-svg .node circle,#my-svg .node ellipse,#my-svg .node polygon,#my-svg .node path{fill:#ECECFF;stroke:#9370DB;stroke-width:1px;}#my-svg .divider{stroke:#9370DB;stroke-width:1;}#my-svg g.clickable{cursor:pointer;}#my-svg g.classGroup rect{fill:#ECECFF;stroke:#9370DB;}#my-svg g.classGroup line{stroke:#9370DB;stroke-width:1;}#my-svg .classLabel .box{stroke:none;stroke-width:0;fill:#ECECFF;opacity:0.5;}#my-svg .classLabel .label{fill:#9370DB;font-size:10px;}#my-svg .relation{stroke:#333333;stroke-width:1;fill:none;}#my-svg .dashed-line{stroke-dasharray:3;}#my-svg .dotted-line{stroke-dasharray:1 2;}#my-svg #compositionStart,#my-svg .composition{fill:#333333!important;stroke:#333333!important;stroke-width:1;}#my-svg #compositionEnd,#my-svg .composition{fill:#333333!important;stroke:#333333!important;stroke-width:1;}#my-svg #dependencyStart,#my-svg .dependency{fill:#333333!important;stroke:#333333!important;stroke-width:1;}#my-svg #dependencyStart,#my-svg .dependency{fill:#333333!important;stroke:#333333!important;stroke-width:1;}#my-svg #extensionStart,#my-svg .extension{fill:transparent!important;stroke:#333333!important;stroke-width:1;}#my-svg #extensionEnd,#my-svg .extension{fill:transparent!important;stroke:#333333!important;stroke-width:1;}#my-svg #aggregationStart,#my-svg .aggregation{fill:transparent!important;stroke:#333333!important;stroke-width:1;}#my-svg #aggregationEnd,#my-svg .aggregation{fill:transparent!important;stroke:#333333!important;stroke-width:1;}#my-svg #lollipopStart,#my-svg .lollipop{fill:#ECECFF!important;stroke:#333333!important;stroke-width:1;}#my-svg #lollipopEnd,#my-svg .lollipop{fill:#ECECFF!important;stroke:#333333!important;stroke-width:1;}#my-svg .edgeTerminals{font-size:11px;line-height:initial;}#my-svg .classTitleText{text-anchor:middle;font-size:18px;fill:#333;}#my-svg :root{--mermaid-font-family:"trebuchet ms",verdana,arial,sans-serif;}</style><g><defs><marker orient="auto" markerHeight="240" markerWidth="190" refY="7" refX="18" class="marker aggregation class" id="my-svg_class-aggregationStart"><path d="M 18,7 L9,13 L1,7 L9,1 Z"/></marker></defs><defs><marker orient="auto" markerHeight="28" markerWidth="20" refY="7" refX="1" class="marker aggregation class" id="my-svg_class-aggregationEnd"><path d="M 18,7 L9,13 L1,7 L9,1 Z"/></marker></defs><defs><marker orient="auto" markerHeight="240" markerWidth="190" refY="7" refX="18" class="marker extension class" id="my-svg_class-extensionStart"><path d="M 1,7 L18,13 V 1 Z"/></marker></defs><defs><marker orient="auto" markerHeight="28" markerWidth="20" refY="7" refX="1" class="marker extension class" id="my-svg_class-extensionEnd"><path d="M 1,1 V 13 L18,7 Z"/></marker></defs><defs><marker orient="auto" markerHeight="240" markerWidth="190" refY="7" refX="18" class="marker composition class" id="my-svg_class-compositionStart"><path d="M 18,7 L9,13 L1,7 L9,1 Z"/></marker></defs><defs><marker orient="auto" markerHeight="28" markerWidth="20" refY="7" refX="1" class="marker composition class" id="my-svg_class-compositionEnd"><path d="M 18,7 L9,13 L1,7 L9,1 Z"/></marker></defs><defs><marker orient="auto" markerHeight="240" markerWidth="190" refY="7" refX="6" class="marker dependency class" id="my-svg_class-dependencyStart"><path d="M 5,7 L9,13 L1,7 L9,1 Z"/></marker></defs><defs><marker orient="auto" markerHeight="28" markerWidth="20" refY="7" refX="13" class="marker dependency class" id="my-svg_class-dependencyEnd"><path d="M 18,7 L9,13 L14,7 L9,1 Z"/></marker></defs><defs><marker orient="auto" markerHeight="240" markerWidth="190" refY="7" refX="13" class="marker lollipop class" id="my-svg_class-lollipopStart"><circle r="6" cy="7" cx="7" fill="transparent" stroke="black"/></marker></defs><defs><marker orient="auto" markerHeight="240" markerWidth="190" refY="7" refX="1" class="marker lollipop class" id="my-svg_class-lollipopEnd"><circle r="6" cy="7" cx="7" fill="transparent" stroke="black"/></marker></defs><g class="root"><g class="clusters"/><g class="edgePaths"/><g class="edgeLabels"/><g class="nodes"><g transform="translate(160.8359375, 364.5)" id="classId-Playlist-0" class="node default"><g class="basic label-container"><path style="" fill="#ECECFF" stroke-width="0" stroke="none" d="M-152.8359375 -229.5 L152.8359375 -229.5 L152.8359375 229.5 L-152.8359375 229.5"/><path style="" fill="none" stroke-width="1.3" stroke="#9370DB" d="M-152.8359375 -229.5 C-76.5810614028508 -229.5, -0.32618530570161397 -229.5, 152.8359375 -229.5 M-152.8359375 -229.5 C-71.55095384958656 -229.5, 9.734029800826875 -229.5, 152.8359375 -229.5 M152.8359375 -229.5 C152.8359375 -72.7593118084796, 152.8359375 83.98137638304081, 152.8359375 229.5 M152.8359375 -229.5 C152.8359375 -110.4252364913974, 152.8359375 8.649527017205202, 152.8359375 229.5 M152.8359375 229.5 C35.581144007843264 229.5, -81.67364948431347 229.5, -152.8359375 229.5 M152.8359375 229.5 C43.975466146688106 229.5, -64.88500520662379 229.5, -152.8359375 229.5 M-152.8359375 229.5 C-152.8359375 50.753254017551086, -152.8359375 -127.99349196489783, -152.8359375 -229.5 M-152.8359375 229.5 C-152.8359375 55.923182459437015, -152.8359375 -117.65363508112597, -152.8359375 -229.5"/></g><g transform="translate(0, -209.5)" class="annotation-group text"/><g transform="translate(-33.21875, -209.5)" class="label-group text"><g transform="translate(0,-9.5)" style="font-weight: bolder" class="label"><g><rect style="stroke: none" class="background"/><text style="" y="-10.1"><tspan font-weight="" dy="1.1em" y="-0.1em" x="0" class="text-outer-tspan"><tspan font-weight="" class="text-inner-tspan" font-style="normal">Playlist</tspan></tspan></text></g></g></g><g transform="translate(-140.8359375, -166.5)" class="members-group text"><g transform="translate(0,-9.5)" style="" class="label"><g><rect style="stroke: none" class="background"/><text style="" y="-10.1"><tspan dy="1.1em" y="-0.1em" x="0" class="text-outer-tspan">- Date date</tspan></text></g></g><g transform="translate(0,12.5)" style="" class="label"><g><rect style="stroke: none" class="background"/><text style="" y="-10.1"><tspan dy="1.1em" y="-0.1em" x="0" class="text-outer-tspan">- int id</tspan></text></g></g><g transform="translate(0,34.5)" style="" class="label"><g><rect style="stroke: none" class="background"/><text style="" y="-10.1"><tspan dy="1.1em" y="-0.1em" x="0" class="text-outer-tspan">- List&lt;Song&gt; songs</tspan></text></g></g><g transform="translate(0,56.5)" style="" class="label"><g><rect style="stroke: none" class="background"/><text style="" y="-10.1"><tspan dy="1.1em" y="-0.1em" x="0" class="text-outer-tspan">- int userId</tspan></text></g></g><g transform="translate(0,78.5)" style="" class="label"><g><rect style="stroke: none" class="background"/><text style="" y="-10.1"><tspan dy="1.1em" y="-0.1em" x="0" class="text-outer-tspan">- String name</tspan></text></g></g></g><g transform="translate(-140.8359375, -35.5)" class="methods-group text"><g transform="translate(0,-9.5)" style="" class="label"><g><rect style="stroke: none" class="background"/><text style="" y="-10.1"><tspan dy="1.1em" y="-0.1em" x="0" class="text-outer-tspan">+ Playlist()</tspan></text></g></g><g transform="translate(0,12.5)" style="" class="label"><g><rect style="stroke: none" class="background"/><text style="" y="-10.1"><tspan dy="1.1em" y="-0.1em" x="0" class="text-outer-tspan">+ setUserId(int) : void</tspan></text></g></g><g transform="translate(0,34.5)" style="" class="label"><g><rect style="stroke: none" class="background"/><text style="" y="-10.1"><tspan dy="1.1em" y="-0.1em" x="0" class="text-outer-tspan">+ getName() : String</tspan></text></g></g><g transform="translate(0,56.5)" style="" class="label"><g><rect style="stroke: none" class="background"/><text style="" y="-10.1"><tspan dy="1.1em" y="-0.1em" x="0" class="text-outer-tspan">+ setSongs(List&lt;Song&gt;) : void</tspan></text></g></g><g transform="translate(0,78.5)" style="" class="label"><g><rect style="stroke: none" class="background"/><text style="" y="-10.1"><tspan dy="1.1em" y="-0.1em" x="0" class="text-outer-tspan">+ getSongs() : List&lt;Song&gt;</tspan></text></g></g><g transform="translate(0,100.5)" style="" class="label"><g><rect style="stroke: none" class="background"/><text style="" y="-10.1"><tspan dy="1.1em" y="-0.1em" x="0" class="text-outer-tspan">+ setId(int) : void</tspan></text></g></g><g transform="translate(0,122.5)" style="" class="label"><g><rect style="stroke: none" class="background"/><text style="" y="-10.1"><tspan dy="1.1em" y="-0.1em" x="0" class="text-outer-tspan">+ getUserId() : int</tspan></text></g></g><g transform="translate(0,144.5)" style="" class="label"><g><rect style="stroke: none" class="background"/><text style="" y="-10.1"><tspan dy="1.1em" y="-0.1em" x="0" class="text-outer-tspan">+ getDate() : Date</tspan></text></g></g><g transform="translate(0,166.5)" style="" class="label"><g><rect style="stroke: none" class="background"/><text style="" y="-10.1"><tspan dy="1.1em" y="-0.1em" x="0" class="text-outer-tspan">+ getId() : int</tspan></text></g></g><g transform="translate(0,188.5)" style="" class="label"><g><rect style="stroke: none" class="background"/><text style="" y="-10.1"><tspan dy="1.1em" y="-0.1em" x="0" class="text-outer-tspan">+ addSong(Song) : void</tspan></text></g></g><g transform="translate(0,210.5)" style="" class="label"><g><rect style="stroke: none" class="background"/><text style="" y="-10.1"><tspan dy="1.1em" y="-0.1em" x="0" class="text-outer-tspan">+ setName(String) : void</tspan></text></g></g><g transform="translate(0,232.5)" style="" class="label"><g><rect style="stroke: none" class="background"/><text style="" y="-10.1"><tspan dy="1.1em" y="-0.1em" x="0" class="text-outer-tspan">+ setDate(Date) : void</tspan></text></g></g></g><g style="" class="divider"><path style="" fill="none" stroke-width="1.3" stroke="#9370DB" d="M-152.8359375 -186.5 C-36.761143295332005 -186.5, 79.31365090933599 -186.5, 152.8359375 -186.5 M-152.8359375 -186.5 C-71.749083968494 -186.5, 9.337769563011989 -186.5, 152.8359375 -186.5"/></g><g style="" class="divider"><path style="" fill="none" stroke-width="1.3" stroke="#9370DB" d="M-152.8359375 -55.5 C-59.457556748313834 -55.5, 33.92082400337233 -55.5, 152.8359375 -55.5 M-152.8359375 -55.5 C-87.96106690325888 -55.5, -23.086196306517763 -55.5, 152.8359375 -55.5"/></g></g><g transform="translate(531.23828125, 364.5)" id="classId-Song-1" class="node default"><g class="basic label-container"><path style="" fill="#ECECFF" stroke-width="0" stroke="none" d="M-167.56640625 -356.5 L167.56640625 -356.5 L167.56640625 356.5 L-167.56640625 356.5"/><path style="" fill="none" stroke-width="1.3" stroke="#9370DB" d="M-167.56640625 -356.5 C-85.31934728782245 -356.5, -3.072288325644905 -356.5, 167.56640625 -356.5 M-167.56640625 -356.5 C-79.27726198000454 -356.5, 9.011882289990922 -356.5, 167.56640625 -356.5 M167.56640625 -356.5 C167.56640625 -186.00153660619864, 167.56640625 -15.503073212397283, 167.56640625 356.5 M167.56640625 -356.5 C167.56640625 -141.72686504675258, 167.56640625 73.04626990649484, 167.56640625 356.5 M167.56640625 356.5 C33.70799442859422 356.5, -100.15041739281156 356.5, -167.56640625 356.5 M167.56640625 356.5 C91.21687570777364 356.5, 14.867345165547277 356.5, -167.56640625 356.5 M-167.56640625 356.5 C-167.56640625 136.49084986343078, -167.56640625 -83.51830027313844, -167.56640625 -356.5 M-167.56640625 356.5 C-167.56640625 127.92221267032988, -167.56640625 -100.65557465934023, -167.56640625 -356.5"/></g><g transform="translate(0, -336.5)" class="annotation-group text"/><g transform="translate(-22.6796875, -336.5)" class="label-group text"><g transform="translate(0,-9.5)" style="font-weight: bolder" class="label"><g><rect style="stroke: none" class="background"/><text style="" y="-10.1"><tspan font-weight="" dy="1.1em" y="-0.1em" x="0" class="text-outer-tspan"><tspan font-weight="" class="text-inner-tspan" font-style="normal">Song</tspan></tspan></text></g></g></g><g transform="translate(-155.56640625, -293.5)" class="members-group text"><g transform="translate(0,-10)" style="" class="label"><g><rect style="stroke: none" class="background"/><text style="" y="-10.1"><tspan dy="1.1em" y="-0.1em" x="0" class="text-outer-tspan">- String image_file_name</tspan></text></g></g><g transform="translate(0,13.5)" style="" class="label"><g><rect style="stroke: none" class="background"/><text style="" y="-10.1"><tspan dy="1.1em" y="-0.1em" x="0" class="text-outer-tspan">- int id</tspan></text></g></g><g transform="translate(0,35)" style="" class="label"><g><rect style="stroke: none" class="background"/><text style="" y="-10.1"><tspan dy="1.1em" y="-0.1em" x="0" class="text-outer-tspan">- int user_id</tspan></text></g></g><g transform="translate(0,58.5)" style="" class="label"><g><rect style="stroke: none" class="background"/><text style="" y="-10.1"><tspan dy="1.1em" y="-0.1em" x="0" class="text-outer-tspan">- String title</tspan></text></g></g><g transform="translate(0,80)" style="" class="label"><g><rect style="stroke: none" class="background"/><text style="" y="-10.1"><tspan dy="1.1em" y="-0.1em" x="0" class="text-outer-tspan">- String album_title</tspan></text></g></g><g transform="translate(0,103.5)" style="" class="label"><g><rect style="stroke: none" class="background"/><text style="" y="-10.1"><tspan dy="1.1em" y="-0.1em" x="0" class="text-outer-tspan">- String genre</tspan></text></g></g><g transform="translate(0,125.5)" style="" class="label"><g><rect style="stroke: none" class="background"/><text style="" y="-10.1"><tspan dy="1.1em" y="-0.1em" x="0" class="text-outer-tspan">- int year</tspan></text></g></g><g transform="translate(0,147)" style="" class="label"><g><rect style="stroke: none" class="background"/><text style="" y="-10.1"><tspan dy="1.1em" y="-0.1em" x="0" class="text-outer-tspan">- String music_file_name</tspan></text></g></g><g transform="translate(0,170.5)" style="" class="label"><g><rect style="stroke: none" class="background"/><text style="" y="-10.1"><tspan dy="1.1em" y="-0.1em" x="0" class="text-outer-tspan">- String performer</tspan></text></g></g></g><g transform="translate(-155.56640625, -70)" class="methods-group text"><g transform="translate(0,-9.5)" style="" class="label"><g><rect style="stroke: none" class="background"/><text style="" y="-10.1"><tspan dy="1.1em" y="-0.1em" x="0" class="text-outer-tspan">+ Song()</tspan></text></g></g><g transform="translate(0,12)" style="" class="label"><g><rect style="stroke: none" class="background"/><text style="" y="-10.1"><tspan dy="1.1em" y="-0.1em" x="0" class="text-outer-tspan">+ setAlbum_title(String) : void</tspan></text></g></g><g transform="translate(0,35)" style="" class="label"><g><rect style="stroke: none" class="background"/><text style="" y="-10.1"><tspan dy="1.1em" y="-0.1em" x="0" class="text-outer-tspan">+ getAlbum_title() : String</tspan></text></g></g><g transform="translate(0,58.5)" style="" class="label"><g><rect style="stroke: none" class="background"/><text style="" y="-10.1"><tspan dy="1.1em" y="-0.1em" x="0" class="text-outer-tspan">+ getYear() : int</tspan></text></g></g><g transform="translate(0,80)" style="" class="label"><g><rect style="stroke: none" class="background"/><text style="" y="-10.1"><tspan dy="1.1em" y="-0.1em" x="0" class="text-outer-tspan">+ setUser_id(int) : void</tspan></text></g></g><g transform="translate(0,103.5)" style="" class="label"><g><rect style="stroke: none" class="background"/><text style="" y="-10.1"><tspan dy="1.1em" y="-0.1em" x="0" class="text-outer-tspan">+ getGenre() : String</tspan></text></g></g><g transform="translate(0,125.5)" style="" class="label"><g><rect style="stroke: none" class="background"/><text style="" y="-10.1"><tspan dy="1.1em" y="-0.1em" x="0" class="text-outer-tspan">+ getPerformer() : String</tspan></text></g></g><g transform="translate(0,147.5)" style="" class="label"><g><rect style="stroke: none" class="background"/><text style="" y="-10.1"><tspan dy="1.1em" y="-0.1em" x="0" class="text-outer-tspan">+ setGenre(String) : void</tspan></text></g></g><g transform="translate(0,169)" style="" class="label"><g><rect style="stroke: none" class="background"/><text style="" y="-10.1"><tspan dy="1.1em" y="-0.1em" x="0" class="text-outer-tspan">+ getMusic_file_name() : String</tspan></text></g></g><g transform="translate(0,192.5)" style="" class="label"><g><rect style="stroke: none" class="background"/><text style="" y="-10.1"><tspan dy="1.1em" y="-0.1em" x="0" class="text-outer-tspan">+ setId(int) : void</tspan></text></g></g><g transform="translate(0,214.5)" style="" class="label"><g><rect style="stroke: none" class="background"/><text style="" y="-10.1"><tspan dy="1.1em" y="-0.1em" x="0" class="text-outer-tspan">+ setPerformer(String) : void</tspan></text></g></g><g transform="translate(0,236.5)" style="" class="label"><g><rect style="stroke: none" class="background"/><text style="" y="-10.1"><tspan dy="1.1em" y="-0.1em" x="0" class="text-outer-tspan">+ setYear(int) : void</tspan></text></g></g><g transform="translate(0,258)" style="" class="label"><g><rect style="stroke: none" class="background"/><text style="" y="-10.1"><tspan dy="1.1em" y="-0.1em" x="0" class="text-outer-tspan">+ getUser_id() : int</tspan></text></g></g><g transform="translate(0,281)" style="" class="label"><g><rect style="stroke: none" class="background"/><text style="" y="-10.1"><tspan dy="1.1em" y="-0.1em" x="0" class="text-outer-tspan">+ setMusic_file_name(String) : void</tspan></text></g></g><g transform="translate(0,304)" style="" class="label"><g><rect style="stroke: none" class="background"/><text style="" y="-10.1"><tspan dy="1.1em" y="-0.1em" x="0" class="text-outer-tspan">+ getImage_file_name() : String</tspan></text></g></g><g transform="translate(0,327.5)" style="" class="label"><g><rect style="stroke: none" class="background"/><text style="" y="-10.1"><tspan dy="1.1em" y="-0.1em" x="0" class="text-outer-tspan">+ getId() : int</tspan></text></g></g><g transform="translate(0,349.5)" style="" class="label"><g><rect style="stroke: none" class="background"/><text style="" y="-10.1"><tspan dy="1.1em" y="-0.1em" x="0" class="text-outer-tspan">+ setTitle(String) : void</tspan></text></g></g><g transform="translate(0,371.5)" style="" class="label"><g><rect style="stroke: none" class="background"/><text style="" y="-10.1"><tspan dy="1.1em" y="-0.1em" x="0" class="text-outer-tspan">+ getTitle() : String</tspan></text></g></g><g transform="translate(0,393)" style="" class="label"><g><rect style="stroke: none" class="background"/><text style="" y="-10.1"><tspan dy="1.1em" y="-0.1em" x="0" class="text-outer-tspan">+ setImage_file_name(String) : void</tspan></text></g></g></g><g style="" class="divider"><path style="" fill="none" stroke-width="1.3" stroke="#9370DB" d="M-167.56640625 -313.5 C-35.03018964188831 -313.5, 97.50602696622337 -313.5, 167.56640625 -313.5 M-167.56640625 -313.5 C-92.93525581809278 -313.5, -18.30410538618557 -313.5, 167.56640625 -313.5"/></g><g style="" class="divider"><path style="" fill="none" stroke-width="1.3" stroke="#9370DB" d="M-167.56640625 -90 C-91.64577011246122 -90, -15.725133974922443 -90, 167.56640625 -90 M-167.56640625 -90 C-59.007125957346176 -90, 49.55215433530765 -90, 167.56640625 -90"/></g></g><g transform="translate(888.232421875, 364.5)" id="classId-User-2" class="node default"><g class="basic label-container"><path style="" fill="#ECECFF" stroke-width="0" stroke="none" d="M-139.427734375 -185.5 L139.427734375 -185.5 L139.427734375 185.5 L-139.427734375 185.5"/><path style="" fill="none" stroke-width="1.3" stroke="#9370DB" d="M-139.427734375 -185.5 C-64.18906329584863 -185.5, 11.049607783302747 -185.5, 139.427734375 -185.5 M-139.427734375 -185.5 C-37.90626761557681 -185.5, 63.61519914384638 -185.5, 139.427734375 -185.5 M139.427734375 -185.5 C139.427734375 -79.54253537848143, 139.427734375 26.414929243037136, 139.427734375 185.5 M139.427734375 -185.5 C139.427734375 -104.5912887185167, 139.427734375 -23.682577437033387, 139.427734375 185.5 M139.427734375 185.5 C70.76494831262596 185.5, 2.102162250251922 185.5, -139.427734375 185.5 M139.427734375 185.5 C79.86893089321404 185.5, 20.3101274114281 185.5, -139.427734375 185.5 M-139.427734375 185.5 C-139.427734375 95.15018316645762, -139.427734375 4.800366332915246, -139.427734375 -185.5 M-139.427734375 185.5 C-139.427734375 41.0352652002924, -139.427734375 -103.4294695994152, -139.427734375 -185.5"/></g><g transform="translate(0, -165.5)" class="annotation-group text"/><g transform="translate(-20.68359375, -165.5)" class="label-group text"><g transform="translate(0,-9.5)" style="font-weight: bolder" class="label"><g><rect style="stroke: none" class="background"/><text style="" y="-10.1"><tspan font-weight="" dy="1.1em" y="-0.1em" x="0" class="text-outer-tspan"><tspan font-weight="" class="text-inner-tspan" font-style="normal">User</tspan></tspan></text></g></g></g><g transform="translate(-127.427734375, -122.5)" class="members-group text"><g transform="translate(0,-9.5)" style="" class="label"><g><rect style="stroke: none" class="background"/><text style="" y="-10.1"><tspan dy="1.1em" y="-0.1em" x="0" class="text-outer-tspan">- String surname</tspan></text></g></g><g transform="translate(0,12.5)" style="" class="label"><g><rect style="stroke: none" class="background"/><text style="" y="-10.1"><tspan dy="1.1em" y="-0.1em" x="0" class="text-outer-tspan">- String username</tspan></text></g></g><g transform="translate(0,34.5)" style="" class="label"><g><rect style="stroke: none" class="background"/><text style="" y="-10.1"><tspan dy="1.1em" y="-0.1em" x="0" class="text-outer-tspan">- String name</tspan></text></g></g><g transform="translate(0,56.5)" style="" class="label"><g><rect style="stroke: none" class="background"/><text style="" y="-10.1"><tspan dy="1.1em" y="-0.1em" x="0" class="text-outer-tspan">- int id</tspan></text></g></g></g><g transform="translate(-127.427734375, -13.5)" class="methods-group text"><g transform="translate(0,-9.5)" style="" class="label"><g><rect style="stroke: none" class="background"/><text style="" y="-10.1"><tspan dy="1.1em" y="-0.1em" x="0" class="text-outer-tspan">+ User()</tspan></text></g></g><g transform="translate(0,12.5)" style="" class="label"><g><rect style="stroke: none" class="background"/><text style="" y="-10.1"><tspan dy="1.1em" y="-0.1em" x="0" class="text-outer-tspan">+ setUsername(String) : void</tspan></text></g></g><g transform="translate(0,34.5)" style="" class="label"><g><rect style="stroke: none" class="background"/><text style="" y="-10.1"><tspan dy="1.1em" y="-0.1em" x="0" class="text-outer-tspan">+ getId() : int</tspan></text></g></g><g transform="translate(0,56.5)" style="" class="label"><g><rect style="stroke: none" class="background"/><text style="" y="-10.1"><tspan dy="1.1em" y="-0.1em" x="0" class="text-outer-tspan">+ getUsername() : String</tspan></text></g></g><g transform="translate(0,78.5)" style="" class="label"><g><rect style="stroke: none" class="background"/><text style="" y="-10.1"><tspan dy="1.1em" y="-0.1em" x="0" class="text-outer-tspan">+ getName() : String</tspan></text></g></g><g transform="translate(0,100.5)" style="" class="label"><g><rect style="stroke: none" class="background"/><text style="" y="-10.1"><tspan dy="1.1em" y="-0.1em" x="0" class="text-outer-tspan">+ setId(int) : void</tspan></text></g></g><g transform="translate(0,122.5)" style="" class="label"><g><rect style="stroke: none" class="background"/><text style="" y="-10.1"><tspan dy="1.1em" y="-0.1em" x="0" class="text-outer-tspan">+ getSurname() : String</tspan></text></g></g><g transform="translate(0,144.5)" style="" class="label"><g><rect style="stroke: none" class="background"/><text style="" y="-10.1"><tspan dy="1.1em" y="-0.1em" x="0" class="text-outer-tspan">+ setSurname(String) : void</tspan></text></g></g><g transform="translate(0,166.5)" style="" class="label"><g><rect style="stroke: none" class="background"/><text style="" y="-10.1"><tspan dy="1.1em" y="-0.1em" x="0" class="text-outer-tspan">+ setName(String) : void</tspan></text></g></g></g><g style="" class="divider"><path style="" fill="none" stroke-width="1.3" stroke="#9370DB" d="M-139.427734375 -142.5 C-56.83537621384241 -142.5, 25.756981947315182 -142.5, 139.427734375 -142.5 M-139.427734375 -142.5 C-30.01087788035389 -142.5, 79.40597861429222 -142.5, 139.427734375 -142.5"/></g><g style="" class="divider"><path style="" fill="none" stroke-width="1.3" stroke="#9370DB" d="M-139.427734375 -33.5 C-43.60030468644416 -33.5, 52.22712500211168 -33.5, 139.427734375 -33.5 M-139.427734375 -33.5 C-69.96110292939255 -33.5, -0.4944714837851052 -33.5, 139.427734375 -33.5"/></g></g></g></g></g></svg>