<svg aria-roledescription="class" role="graphics-document document" viewBox="0 0 987.01953125 729" style="max-width: 987.02px; background-color: white;" class="classDiagram" xmlns:xlink="http://www.w3.org/1999/xlink" xmlns="http://www.w3.org/2000/svg" width="100%" id="my-svg"><style>#my-svg{font-family:"trebuchet ms",verdana,arial,sans-serif;font-size:16px;fill:#333;}#my-svg .error-icon{fill:#552222;}#my-svg .error-text{fill:#552222;stroke:#552222;}#my-svg .edge-thickness-normal{stroke-width:1px;}#my-svg .edge-thickness-thick{stroke-width:3.5px;}#my-svg .edge-pattern-solid{stroke-dasharray:0;}#my-svg .edge-thickness-invisible{stroke-width:0;fill:none;}#my-svg .edge-pattern-dashed{stroke-dasharray:3;}#my-svg .edge-pattern-dotted{stroke-dasharray:2;}#my-svg .marker{fill:#333333;stroke:#333333;}#my-svg .marker.cross{stroke:#333333;}#my-svg svg{font-family:"trebuchet ms",verdana,arial,sans-serif;font-size:16px;}#my-svg p{margin:0;}#my-svg g.classGroup text{fill:#9370DB;stroke:none;font-family:"trebuchet ms",verdana,arial,sans-serif;font-size:10px;}#my-svg g.classGroup text .title{font-weight:bolder;}#my-svg .nodeLabel,#my-svg .edgeLabel{color:#131300;}#my-svg .edgeLabel .label rect{fill:#ECECFF;}#my-svg .label text{fill:#131300;}#my-svg .labelBkg{background:#ECECFF;}#my-svg .edgeLabel .label span{background:#ECECFF;}#my-svg .classTitle{font-weight:bolder;}#my-svg .node rect,#my-svg .node circle,#my-svg .node ellipse,#my-svg .node polygon,#my-svg .node path{fill:#ECECFF;stroke:#9370DB;stroke-width:1px;}#my-svg .divider{stroke:#9370DB;stroke-width:1;}#my-svg g.clickable{cursor:pointer;}#my-svg g.classGroup rect{fill:#ECECFF;stroke:#9370DB;}#my-svg g.classGroup line{stroke:#9370DB;stroke-width:1;}#my-svg .classLabel .box{stroke:none;stroke-width:0;fill:#ECECFF;opacity:0.5;}#my-svg .classLabel .label{fill:#9370DB;font-size:10px;}#my-svg .relation{stroke:#333333;stroke-width:1;fill:none;}#my-svg .dashed-line{stroke-dasharray:3;}#my-svg .dotted-line{stroke-dasharray:1 2;}#my-svg #compositionStart,#my-svg .composition{fill:#333333!important;stroke:#333333!important;stroke-width:1;}#my-svg #compositionEnd,#my-svg .composition{fill:#333333!important;stroke:#333333!important;stroke-width:1;}#my-svg #dependencyStart,#my-svg .dependency{fill:#333333!important;stroke:#333333!important;stroke-width:1;}#my-svg #dependencyStart,#my-svg .dependency{fill:#333333!important;stroke:#333333!important;stroke-width:1;}#my-svg #extensionStart,#my-svg .extension{fill:transparent!important;stroke:#333333!important;stroke-width:1;}#my-svg #extensionEnd,#my-svg .extension{fill:transparent!important;stroke:#333333!important;stroke-width:1;}#my-svg #aggregationStart,#my-svg .aggregation{fill:transparent!important;stroke:#333333!important;stroke-width:1;}#my-svg #aggregationEnd,#my-svg .aggregation{fill:transparent!important;stroke:#333333!important;stroke-width:1;}#my-svg #lollipopStart,#my-svg .lollipop{fill:#ECECFF!important;stroke:#333333!important;stroke-width:1;}#my-svg #lollipopEnd,#my-svg .lollipop{fill:#ECECFF!important;stroke:#333333!important;stroke-width:1;}#my-svg .edgeTerminals{font-size:11px;line-height:initial;}#my-svg .classTitleText{text-anchor:middle;font-size:18px;fill:#333;}#my-svg :root{--mermaid-font-family:"trebuchet ms",verdana,arial,sans-serif;}</style><g><defs><marker orient="auto" markerHeight="240" markerWidth="190" refY="7" refX="18" class="marker aggregation class" id="my-svg_class-aggregationStart"><path d="M 18,7 L9,13 L1,7 L9,1 Z"/></marker></defs><defs><marker orient="auto" markerHeight="28" markerWidth="20" refY="7" refX="1" class="marker aggregation class" id="my-svg_class-aggregationEnd"><path d="M 18,7 L9,13 L1,7 L9,1 Z"/></marker></defs><defs><marker orient="auto" markerHeight="240" markerWidth="190" refY="7" refX="18" class="marker extension class" id="my-svg_class-extensionStart"><path d="M 1,7 L18,13 V 1 Z"/></marker></defs><defs><marker orient="auto" markerHeight="28" markerWidth="20" refY="7" refX="1" class="marker extension class" id="my-svg_class-extensionEnd"><path d="M 1,1 V 13 L18,7 Z"/></marker></defs><defs><marker orient="auto" markerHeight="240" markerWidth="190" refY="7" refX="18" class="marker composition class" id="my-svg_class-compositionStart"><path d="M 18,7 L9,13 L1,7 L9,1 Z"/></marker></defs><defs><marker orient="auto" markerHeight="28" markerWidth="20" refY="7" refX="1" class="marker composition class" id="my-svg_class-compositionEnd"><path d="M 18,7 L9,13 L1,7 L9,1 Z"/></marker></defs><defs><marker orient="auto" markerHeight="240" markerWidth="190" refY="7" refX="6" class="marker dependency class" id="my-svg_class-dependencyStart"><path d="M 5,7 L9,13 L1,7 L9,1 Z"/></marker></defs><defs><marker orient="auto" markerHeight="28" markerWidth="20" refY="7" refX="13" class="marker dependency class" id="my-svg_class-dependencyEnd"><path d="M 18,7 L9,13 L14,7 L9,1 Z"/></marker></defs><defs><marker orient="auto" markerHeight="240" markerWidth="190" refY="7" refX="13" class="marker lollipop class" id="my-svg_class-lollipopStart"><circle r="6" cy="7" cx="7" fill="transparent" stroke="black"/></marker></defs><defs><marker orient="auto" markerHeight="240" markerWidth="190" refY="7" refX="1" class="marker lollipop class" id="my-svg_class-lollipopEnd"><circle r="6" cy="7" cx="7" fill="transparent" stroke="black"/></marker></defs><g class="root"><g class="clusters"/><g class="edgePaths"/><g class="edgeLabels"/><g class="nodes"><g transform="translate(136.515625, 364.5)" id="classId-Playlist-0" class="node default"><g class="basic label-container"><path style="" fill="#ECECFF" stroke-width="0" stroke="none" d="M-128.515625 -185.5 L128.515625 -185.5 L128.515625 185.5 L-128.515625 185.5"/><path style="" fill="none" stroke-width="1.3" stroke="#9370DB" d="M-128.515625 -185.5 C-58.86815741619644 -185.5, 10.779310167607122 -185.5, 128.515625 -185.5 M-128.515625 -185.5 C-26.70274903308514 -185.5, 75.11012693382972 -185.5, 128.515625 -185.5 M128.515625 -185.5 C128.515625 -72.86452786187165, 128.515625 39.7709442762567, 128.515625 185.5 M128.515625 -185.5 C128.515625 -38.265862923456496, 128.515625 108.96827415308701, 128.515625 185.5 M128.515625 185.5 C28.434919580802003 185.5, -71.645785838396 185.5, -128.515625 185.5 M128.515625 185.5 C36.104384928798524 185.5, -56.30685514240295 185.5, -128.515625 185.5 M-128.515625 185.5 C-128.515625 53.53464153627061, -128.515625 -78.43071692745877, -128.515625 -185.5 M-128.515625 185.5 C-128.515625 103.60115094864892, -128.515625 21.702301897297843, -128.515625 -185.5"/></g><g transform="translate(0, -165.5)" class="annotation-group text"/><g transform="translate(-33.21875, -165.5)" class="label-group text"><g transform="translate(0,-9.5)" style="font-weight: bolder" class="label"><g><rect style="stroke: none" class="background"/><text style="" y="-10.1"><tspan font-weight="" dy="1.1em" y="-0.1em" x="0" class="text-outer-tspan"><tspan font-weight="" class="text-inner-tspan" font-style="normal">Playlist</tspan></tspan></text></g></g></g><g transform="translate(-116.515625, -122.5)" class="members-group text"><g transform="translate(0,-9.5)" style="" class="label"><g><rect style="stroke: none" class="background"/><text style="" y="-10.1"><tspan dy="1.1em" y="-0.1em" x="0" class="text-outer-tspan">- String name</tspan></text></g></g><g transform="translate(0,12.5)" style="" class="label"><g><rect style="stroke: none" class="background"/><text style="" y="-10.1"><tspan dy="1.1em" y="-0.1em" x="0" class="text-outer-tspan">- int id</tspan></text></g></g><g transform="translate(0,34.5)" style="" class="label"><g><rect style="stroke: none" class="background"/><text style="" y="-10.1"><tspan dy="1.1em" y="-0.1em" x="0" class="text-outer-tspan">- Date date</tspan></text></g></g><g transform="translate(0,56.5)" style="" class="label"><g><rect style="stroke: none" class="background"/><text style="" y="-10.1"><tspan dy="1.1em" y="-0.1em" x="0" class="text-outer-tspan">- int userId</tspan></text></g></g></g><g transform="translate(-116.515625, -13.5)" class="methods-group text"><g transform="translate(0,-9.5)" style="" class="label"><g><rect style="stroke: none" class="background"/><text style="" y="-10.1"><tspan dy="1.1em" y="-0.1em" x="0" class="text-outer-tspan">+ Playlist()</tspan></text></g></g><g transform="translate(0,12.5)" style="" class="label"><g><rect style="stroke: none" class="background"/><text style="" y="-10.1"><tspan dy="1.1em" y="-0.1em" x="0" class="text-outer-tspan">+ getId() : int</tspan></text></g></g><g transform="translate(0,34.5)" style="" class="label"><g><rect style="stroke: none" class="background"/><text style="" y="-10.1"><tspan dy="1.1em" y="-0.1em" x="0" class="text-outer-tspan">+ setDate(Date) : void</tspan></text></g></g><g transform="translate(0,56.5)" style="" class="label"><g><rect style="stroke: none" class="background"/><text style="" y="-10.1"><tspan dy="1.1em" y="-0.1em" x="0" class="text-outer-tspan">+ setName(String) : void</tspan></text></g></g><g transform="translate(0,78.5)" style="" class="label"><g><rect style="stroke: none" class="background"/><text style="" y="-10.1"><tspan dy="1.1em" y="-0.1em" x="0" class="text-outer-tspan">+ getDate() : Date</tspan></text></g></g><g transform="translate(0,100.5)" style="" class="label"><g><rect style="stroke: none" class="background"/><text style="" y="-10.1"><tspan dy="1.1em" y="-0.1em" x="0" class="text-outer-tspan">+ setId(int) : void</tspan></text></g></g><g transform="translate(0,122.5)" style="" class="label"><g><rect style="stroke: none" class="background"/><text style="" y="-10.1"><tspan dy="1.1em" y="-0.1em" x="0" class="text-outer-tspan">+ getUserId() : int</tspan></text></g></g><g transform="translate(0,144.5)" style="" class="label"><g><rect style="stroke: none" class="background"/><text style="" y="-10.1"><tspan dy="1.1em" y="-0.1em" x="0" class="text-outer-tspan">+ getName() : String</tspan></text></g></g><g transform="translate(0,166.5)" style="" class="label"><g><rect style="stroke: none" class="background"/><text style="" y="-10.1"><tspan dy="1.1em" y="-0.1em" x="0" class="text-outer-tspan">+ setUserId(int) : void</tspan></text></g></g></g><g style="" class="divider"><path style="" fill="none" stroke-width="1.3" stroke="#9370DB" d="M-128.515625 -142.5 C-48.87556619607891 -142.5, 30.764492607842186 -142.5, 128.515625 -142.5 M-128.515625 -142.5 C-68.21507069577811 -142.5, -7.914516391556205 -142.5, 128.515625 -142.5"/></g><g style="" class="divider"><path style="" fill="none" stroke-width="1.3" stroke="#9370DB" d="M-128.515625 -33.5 C-37.391497465505154 -33.5, 53.73263006898969 -33.5, 128.515625 -33.5 M-128.515625 -33.5 C-65.74676906848507 -33.5, -2.9779131369701446 -33.5, 128.515625 -33.5"/></g></g><g transform="translate(482.59765625, 364.5)" id="classId-Song-1" class="node default"><g class="basic label-container"><path style="" fill="#ECECFF" stroke-width="0" stroke="none" d="M-167.56640625 -356.5 L167.56640625 -356.5 L167.56640625 356.5 L-167.56640625 356.5"/><path style="" fill="none" stroke-width="1.3" stroke="#9370DB" d="M-167.56640625 -356.5 C-100.03905586772349 -356.5, -32.51170548544698 -356.5, 167.56640625 -356.5 M-167.56640625 -356.5 C-34.27243753013792 -356.5, 99.02153118972416 -356.5, 167.56640625 -356.5 M167.56640625 -356.5 C167.56640625 -145.21570665222373, 167.56640625 66.06858669555254, 167.56640625 356.5 M167.56640625 -356.5 C167.56640625 -195.4324871480153, 167.56640625 -34.364974296030596, 167.56640625 356.5 M167.56640625 356.5 C92.43360073907631 356.5, 17.300795228152623 356.5, -167.56640625 356.5 M167.56640625 356.5 C66.95278362195876 356.5, -33.66083900608248 356.5, -167.56640625 356.5 M-167.56640625 356.5 C-167.56640625 88.82050238120098, -167.56640625 -178.85899523759804, -167.56640625 -356.5 M-167.56640625 356.5 C-167.56640625 154.94383834060946, -167.56640625 -46.61232331878108, -167.56640625 -356.5"/></g><g transform="translate(0, -336.5)" class="annotation-group text"/><g transform="translate(-22.6796875, -336.5)" class="label-group text"><g transform="translate(0,-9.5)" style="font-weight: bolder" class="label"><g><rect style="stroke: none" class="background"/><text style="" y="-10.1"><tspan font-weight="" dy="1.1em" y="-0.1em" x="0" class="text-outer-tspan"><tspan font-weight="" class="text-inner-tspan" font-style="normal">Song</tspan></tspan></text></g></g></g><g transform="translate(-155.56640625, -293.5)" class="members-group text"><g transform="translate(0,-9.5)" style="" class="label"><g><rect style="stroke: none" class="background"/><text style="" y="-10.1"><tspan dy="1.1em" y="-0.1em" x="0" class="text-outer-tspan">- String title</tspan></text></g></g><g transform="translate(0,12)" style="" class="label"><g><rect style="stroke: none" class="background"/><text style="" y="-10.1"><tspan dy="1.1em" y="-0.1em" x="0" class="text-outer-tspan">- String image_file_name</tspan></text></g></g><g transform="translate(0,35)" style="" class="label"><g><rect style="stroke: none" class="background"/><text style="" y="-10.1"><tspan dy="1.1em" y="-0.1em" x="0" class="text-outer-tspan">- String album_title</tspan></text></g></g><g transform="translate(0,58)" style="" class="label"><g><rect style="stroke: none" class="background"/><text style="" y="-10.1"><tspan dy="1.1em" y="-0.1em" x="0" class="text-outer-tspan">- String music_file_name</tspan></text></g></g><g transform="translate(0,81.5)" style="" class="label"><g><rect style="stroke: none" class="background"/><text style="" y="-10.1"><tspan dy="1.1em" y="-0.1em" x="0" class="text-outer-tspan">- String performer</tspan></text></g></g><g transform="translate(0,103.5)" style="" class="label"><g><rect style="stroke: none" class="background"/><text style="" y="-10.1"><tspan dy="1.1em" y="-0.1em" x="0" class="text-outer-tspan">- int year</tspan></text></g></g><g transform="translate(0,125)" style="" class="label"><g><rect style="stroke: none" class="background"/><text style="" y="-10.1"><tspan dy="1.1em" y="-0.1em" x="0" class="text-outer-tspan">- int user_id</tspan></text></g></g><g transform="translate(0,148.5)" style="" class="label"><g><rect style="stroke: none" class="background"/><text style="" y="-10.1"><tspan dy="1.1em" y="-0.1em" x="0" class="text-outer-tspan">- String genre</tspan></text></g></g><g transform="translate(0,170.5)" style="" class="label"><g><rect style="stroke: none" class="background"/><text style="" y="-10.1"><tspan dy="1.1em" y="-0.1em" x="0" class="text-outer-tspan">- int id</tspan></text></g></g></g><g transform="translate(-155.56640625, -70.5)" class="methods-group text"><g transform="translate(0,-9.5)" style="" class="label"><g><rect style="stroke: none" class="background"/><text style="" y="-10.1"><tspan dy="1.1em" y="-0.1em" x="0" class="text-outer-tspan">+ Song()</tspan></text></g></g><g transform="translate(0,12)" style="" class="label"><g><rect style="stroke: none" class="background"/><text style="" y="-10.1"><tspan dy="1.1em" y="-0.1em" x="0" class="text-outer-tspan">+ setAlbum_title(String) : void</tspan></text></g></g><g transform="translate(0,35.5)" style="" class="label"><g><rect style="stroke: none" class="background"/><text style="" y="-10.1"><tspan dy="1.1em" y="-0.1em" x="0" class="text-outer-tspan">+ setGenre(String) : void</tspan></text></g></g><g transform="translate(0,57)" style="" class="label"><g><rect style="stroke: none" class="background"/><text style="" y="-10.1"><tspan dy="1.1em" y="-0.1em" x="0" class="text-outer-tspan">+ getUser_id() : int</tspan></text></g></g><g transform="translate(0,80.5)" style="" class="label"><g><rect style="stroke: none" class="background"/><text style="" y="-10.1"><tspan dy="1.1em" y="-0.1em" x="0" class="text-outer-tspan">+ getYear() : int</tspan></text></g></g><g transform="translate(0,102.5)" style="" class="label"><g><rect style="stroke: none" class="background"/><text style="" y="-10.1"><tspan dy="1.1em" y="-0.1em" x="0" class="text-outer-tspan">+ getGenre() : String</tspan></text></g></g><g transform="translate(0,124)" style="" class="label"><g><rect style="stroke: none" class="background"/><text style="" y="-10.1"><tspan dy="1.1em" y="-0.1em" x="0" class="text-outer-tspan">+ setImage_file_name(String) : void</tspan></text></g></g><g transform="translate(0,147)" style="" class="label"><g><rect style="stroke: none" class="background"/><text style="" y="-10.1"><tspan dy="1.1em" y="-0.1em" x="0" class="text-outer-tspan">+ getMusic_file_name() : String</tspan></text></g></g><g transform="translate(0,170.5)" style="" class="label"><g><rect style="stroke: none" class="background"/><text style="" y="-10.1"><tspan dy="1.1em" y="-0.1em" x="0" class="text-outer-tspan">+ setPerformer(String) : void</tspan></text></g></g><g transform="translate(0,192)" style="" class="label"><g><rect style="stroke: none" class="background"/><text style="" y="-10.1"><tspan dy="1.1em" y="-0.1em" x="0" class="text-outer-tspan">+ setUser_id(int) : void</tspan></text></g></g><g transform="translate(0,215.5)" style="" class="label"><g><rect style="stroke: none" class="background"/><text style="" y="-10.1"><tspan dy="1.1em" y="-0.1em" x="0" class="text-outer-tspan">+ getId() : int</tspan></text></g></g><g transform="translate(0,237)" style="" class="label"><g><rect style="stroke: none" class="background"/><text style="" y="-10.1"><tspan dy="1.1em" y="-0.1em" x="0" class="text-outer-tspan">+ getImage_file_name() : String</tspan></text></g></g><g transform="translate(0,260.5)" style="" class="label"><g><rect style="stroke: none" class="background"/><text style="" y="-10.1"><tspan dy="1.1em" y="-0.1em" x="0" class="text-outer-tspan">+ setId(int) : void</tspan></text></g></g><g transform="translate(0,282.5)" style="" class="label"><g><rect style="stroke: none" class="background"/><text style="" y="-10.1"><tspan dy="1.1em" y="-0.1em" x="0" class="text-outer-tspan">+ setTitle(String) : void</tspan></text></g></g><g transform="translate(0,304)" style="" class="label"><g><rect style="stroke: none" class="background"/><text style="" y="-10.1"><tspan dy="1.1em" y="-0.1em" x="0" class="text-outer-tspan">+ setMusic_file_name(String) : void</tspan></text></g></g><g transform="translate(0,327)" style="" class="label"><g><rect style="stroke: none" class="background"/><text style="" y="-10.1"><tspan dy="1.1em" y="-0.1em" x="0" class="text-outer-tspan">+ getAlbum_title() : String</tspan></text></g></g><g transform="translate(0,350.5)" style="" class="label"><g><rect style="stroke: none" class="background"/><text style="" y="-10.1"><tspan dy="1.1em" y="-0.1em" x="0" class="text-outer-tspan">+ getPerformer() : String</tspan></text></g></g><g transform="translate(0,372.5)" style="" class="label"><g><rect style="stroke: none" class="background"/><text style="" y="-10.1"><tspan dy="1.1em" y="-0.1em" x="0" class="text-outer-tspan">+ getTitle() : String</tspan></text></g></g><g transform="translate(0,394.5)" style="" class="label"><g><rect style="stroke: none" class="background"/><text style="" y="-10.1"><tspan dy="1.1em" y="-0.1em" x="0" class="text-outer-tspan">+ setYear(int) : void</tspan></text></g></g></g><g style="" class="divider"><path style="" fill="none" stroke-width="1.3" stroke="#9370DB" d="M-167.56640625 -313.5 C-98.51862997649778 -313.5, -29.470853702995555 -313.5, 167.56640625 -313.5 M-167.56640625 -313.5 C-83.44986412682404 -313.5, 0.6666779963519218 -313.5, 167.56640625 -313.5"/></g><g style="" class="divider"><path style="" fill="none" stroke-width="1.3" stroke="#9370DB" d="M-167.56640625 -90.5 C-66.01002982114457 -90.5, 35.54634660771086 -90.5, 167.56640625 -90.5 M-167.56640625 -90.5 C-47.52785942499423 -90.5, 72.51068740001153 -90.5, 167.56640625 -90.5"/></g></g><g transform="translate(839.591796875, 364.5)" id="classId-User-2" class="node default"><g class="basic label-container"><path style="" fill="#ECECFF" stroke-width="0" stroke="none" d="M-139.427734375 -185.5 L139.427734375 -185.5 L139.427734375 185.5 L-139.427734375 185.5"/><path style="" fill="none" stroke-width="1.3" stroke="#9370DB" d="M-139.427734375 -185.5 C-64.86909766157332 -185.5, 9.689539051853359 -185.5, 139.427734375 -185.5 M-139.427734375 -185.5 C-74.1233321644488 -185.5, -8.818929953897594 -185.5, 139.427734375 -185.5 M139.427734375 -185.5 C139.427734375 -81.78383007130792, 139.427734375 21.932339857384164, 139.427734375 185.5 M139.427734375 -185.5 C139.427734375 -75.6638964071788, 139.427734375 34.17220718564241, 139.427734375 185.5 M139.427734375 185.5 C55.08318823185165 185.5, -29.2613579112967 185.5, -139.427734375 185.5 M139.427734375 185.5 C53.615442054791245 185.5, -32.19685026541751 185.5, -139.427734375 185.5 M-139.427734375 185.5 C-139.427734375 85.89708210223473, -139.427734375 -13.705835795530533, -139.427734375 -185.5 M-139.427734375 185.5 C-139.427734375 67.48880119413863, -139.427734375 -50.52239761172274, -139.427734375 -185.5"/></g><g transform="translate(0, -165.5)" class="annotation-group text"/><g transform="translate(-20.68359375, -165.5)" class="label-group text"><g transform="translate(0,-9.5)" style="font-weight: bolder" class="label"><g><rect style="stroke: none" class="background"/><text style="" y="-10.1"><tspan font-weight="" dy="1.1em" y="-0.1em" x="0" class="text-outer-tspan"><tspan font-weight="" class="text-inner-tspan" font-style="normal">User</tspan></tspan></text></g></g></g><g transform="translate(-127.427734375, -122.5)" class="members-group text"><g transform="translate(0,-9.5)" style="" class="label"><g><rect style="stroke: none" class="background"/><text style="" y="-10.1"><tspan dy="1.1em" y="-0.1em" x="0" class="text-outer-tspan">- int id</tspan></text></g></g><g transform="translate(0,12.5)" style="" class="label"><g><rect style="stroke: none" class="background"/><text style="" y="-10.1"><tspan dy="1.1em" y="-0.1em" x="0" class="text-outer-tspan">- String name</tspan></text></g></g><g transform="translate(0,34.5)" style="" class="label"><g><rect style="stroke: none" class="background"/><text style="" y="-10.1"><tspan dy="1.1em" y="-0.1em" x="0" class="text-outer-tspan">- String username</tspan></text></g></g><g transform="translate(0,56.5)" style="" class="label"><g><rect style="stroke: none" class="background"/><text style="" y="-10.1"><tspan dy="1.1em" y="-0.1em" x="0" class="text-outer-tspan">- String surname</tspan></text></g></g></g><g transform="translate(-127.427734375, -13.5)" class="methods-group text"><g transform="translate(0,-9.5)" style="" class="label"><g><rect style="stroke: none" class="background"/><text style="" y="-10.1"><tspan dy="1.1em" y="-0.1em" x="0" class="text-outer-tspan">+ User()</tspan></text></g></g><g transform="translate(0,12.5)" style="" class="label"><g><rect style="stroke: none" class="background"/><text style="" y="-10.1"><tspan dy="1.1em" y="-0.1em" x="0" class="text-outer-tspan">+ setSurname(String) : void</tspan></text></g></g><g transform="translate(0,34.5)" style="" class="label"><g><rect style="stroke: none" class="background"/><text style="" y="-10.1"><tspan dy="1.1em" y="-0.1em" x="0" class="text-outer-tspan">+ setName(String) : void</tspan></text></g></g><g transform="translate(0,56.5)" style="" class="label"><g><rect style="stroke: none" class="background"/><text style="" y="-10.1"><tspan dy="1.1em" y="-0.1em" x="0" class="text-outer-tspan">+ setId(int) : void</tspan></text></g></g><g transform="translate(0,78.5)" style="" class="label"><g><rect style="stroke: none" class="background"/><text style="" y="-10.1"><tspan dy="1.1em" y="-0.1em" x="0" class="text-outer-tspan">+ getName() : String</tspan></text></g></g><g transform="translate(0,100.5)" style="" class="label"><g><rect style="stroke: none" class="background"/><text style="" y="-10.1"><tspan dy="1.1em" y="-0.1em" x="0" class="text-outer-tspan">+ getId() : int</tspan></text></g></g><g transform="translate(0,122.5)" style="" class="label"><g><rect style="stroke: none" class="background"/><text style="" y="-10.1"><tspan dy="1.1em" y="-0.1em" x="0" class="text-outer-tspan">+ getUsername() : String</tspan></text></g></g><g transform="translate(0,144.5)" style="" class="label"><g><rect style="stroke: none" class="background"/><text style="" y="-10.1"><tspan dy="1.1em" y="-0.1em" x="0" class="text-outer-tspan">+ getSurname() : String</tspan></text></g></g><g transform="translate(0,166.5)" style="" class="label"><g><rect style="stroke: none" class="background"/><text style="" y="-10.1"><tspan dy="1.1em" y="-0.1em" x="0" class="text-outer-tspan">+ setUsername(String) : void</tspan></text></g></g></g><g style="" class="divider"><path style="" fill="none" stroke-width="1.3" stroke="#9370DB" d="M-139.427734375 -142.5 C-35.07151346366403 -142.5, 69.28470744767193 -142.5, 139.427734375 -142.5 M-139.427734375 -142.5 C-67.3861806146838 -142.5, 4.65537314563241 -142.5, 139.427734375 -142.5"/></g><g style="" class="divider"><path style="" fill="none" stroke-width="1.3" stroke="#9370DB" d="M-139.427734375 -33.5 C-40.351985360039436 -33.5, 58.72376365492113 -33.5, 139.427734375 -33.5 M-139.427734375 -33.5 C-37.12807664762893 -33.5, 65.17158107974214 -33.5, 139.427734375 -33.5"/></g></g></g></g></g></svg>