<svg aria-roledescription="class" role="graphics-document document" viewBox="0 0 712.2109375 167" style="max-width: 712.211px; background-color: white;" class="classDiagram" xmlns:xlink="http://www.w3.org/1999/xlink" xmlns="http://www.w3.org/2000/svg" width="100%" id="my-svg"><style>#my-svg{font-family:"trebuchet ms",verdana,arial,sans-serif;font-size:16px;fill:#333;}#my-svg .error-icon{fill:#552222;}#my-svg .error-text{fill:#552222;stroke:#552222;}#my-svg .edge-thickness-normal{stroke-width:1px;}#my-svg .edge-thickness-thick{stroke-width:3.5px;}#my-svg .edge-pattern-solid{stroke-dasharray:0;}#my-svg .edge-thickness-invisible{stroke-width:0;fill:none;}#my-svg .edge-pattern-dashed{stroke-dasharray:3;}#my-svg .edge-pattern-dotted{stroke-dasharray:2;}#my-svg .marker{fill:#333333;stroke:#333333;}#my-svg .marker.cross{stroke:#333333;}#my-svg svg{font-family:"trebuchet ms",verdana,arial,sans-serif;font-size:16px;}#my-svg p{margin:0;}#my-svg g.classGroup text{fill:#9370DB;stroke:none;font-family:"trebuchet ms",verdana,arial,sans-serif;font-size:10px;}#my-svg g.classGroup text .title{font-weight:bolder;}#my-svg .nodeLabel,#my-svg .edgeLabel{color:#131300;}#my-svg .edgeLabel .label rect{fill:#ECECFF;}#my-svg .label text{fill:#131300;}#my-svg .labelBkg{background:#ECECFF;}#my-svg .edgeLabel .label span{background:#ECECFF;}#my-svg .classTitle{font-weight:bolder;}#my-svg .node rect,#my-svg .node circle,#my-svg .node ellipse,#my-svg .node polygon,#my-svg .node path{fill:#ECECFF;stroke:#9370DB;stroke-width:1px;}#my-svg .divider{stroke:#9370DB;stroke-width:1;}#my-svg g.clickable{cursor:pointer;}#my-svg g.classGroup rect{fill:#ECECFF;stroke:#9370DB;}#my-svg g.classGroup line{stroke:#9370DB;stroke-width:1;}#my-svg .classLabel .box{stroke:none;stroke-width:0;fill:#ECECFF;opacity:0.5;}#my-svg .classLabel .label{fill:#9370DB;font-size:10px;}#my-svg .relation{stroke:#333333;stroke-width:1;fill:none;}#my-svg .dashed-line{stroke-dasharray:3;}#my-svg .dotted-line{stroke-dasharray:1 2;}#my-svg #compositionStart,#my-svg .composition{fill:#333333!important;stroke:#333333!important;stroke-width:1;}#my-svg #compositionEnd,#my-svg .composition{fill:#333333!important;stroke:#333333!important;stroke-width:1;}#my-svg #dependencyStart,#my-svg .dependency{fill:#333333!important;stroke:#333333!important;stroke-width:1;}#my-svg #dependencyStart,#my-svg .dependency{fill:#333333!important;stroke:#333333!important;stroke-width:1;}#my-svg #extensionStart,#my-svg .extension{fill:transparent!important;stroke:#333333!important;stroke-width:1;}#my-svg #extensionEnd,#my-svg .extension{fill:transparent!important;stroke:#333333!important;stroke-width:1;}#my-svg #aggregationStart,#my-svg .aggregation{fill:transparent!important;stroke:#333333!important;stroke-width:1;}#my-svg #aggregationEnd,#my-svg .aggregation{fill:transparent!important;stroke:#333333!important;stroke-width:1;}#my-svg #lollipopStart,#my-svg .lollipop{fill:#ECECFF!important;stroke:#333333!important;stroke-width:1;}#my-svg #lollipopEnd,#my-svg .lollipop{fill:#ECECFF!important;stroke:#333333!important;stroke-width:1;}#my-svg .edgeTerminals{font-size:11px;line-height:initial;}#my-svg .classTitleText{text-anchor:middle;font-size:18px;fill:#333;}#my-svg :root{--mermaid-font-family:"trebuchet ms",verdana,arial,sans-serif;}</style><g><defs><marker orient="auto" markerHeight="240" markerWidth="190" refY="7" refX="18" class="marker aggregation class" id="my-svg_class-aggregationStart"><path d="M 18,7 L9,13 L1,7 L9,1 Z"/></marker></defs><defs><marker orient="auto" markerHeight="28" markerWidth="20" refY="7" refX="1" class="marker aggregation class" id="my-svg_class-aggregationEnd"><path d="M 18,7 L9,13 L1,7 L9,1 Z"/></marker></defs><defs><marker orient="auto" markerHeight="240" markerWidth="190" refY="7" refX="18" class="marker extension class" id="my-svg_class-extensionStart"><path d="M 1,7 L18,13 V 1 Z"/></marker></defs><defs><marker orient="auto" markerHeight="28" markerWidth="20" refY="7" refX="1" class="marker extension class" id="my-svg_class-extensionEnd"><path d="M 1,1 V 13 L18,7 Z"/></marker></defs><defs><marker orient="auto" markerHeight="240" markerWidth="190" refY="7" refX="18" class="marker composition class" id="my-svg_class-compositionStart"><path d="M 18,7 L9,13 L1,7 L9,1 Z"/></marker></defs><defs><marker orient="auto" markerHeight="28" markerWidth="20" refY="7" refX="1" class="marker composition class" id="my-svg_class-compositionEnd"><path d="M 18,7 L9,13 L1,7 L9,1 Z"/></marker></defs><defs><marker orient="auto" markerHeight="240" markerWidth="190" refY="7" refX="6" class="marker dependency class" id="my-svg_class-dependencyStart"><path d="M 5,7 L9,13 L1,7 L9,1 Z"/></marker></defs><defs><marker orient="auto" markerHeight="28" markerWidth="20" refY="7" refX="13" class="marker dependency class" id="my-svg_class-dependencyEnd"><path d="M 18,7 L9,13 L14,7 L9,1 Z"/></marker></defs><defs><marker orient="auto" markerHeight="240" markerWidth="190" refY="7" refX="13" class="marker lollipop class" id="my-svg_class-lollipopStart"><circle r="6" cy="7" cx="7" fill="transparent" stroke="black"/></marker></defs><defs><marker orient="auto" markerHeight="240" markerWidth="190" refY="7" refX="1" class="marker lollipop class" id="my-svg_class-lollipopEnd"><circle r="6" cy="7" cx="7" fill="transparent" stroke="black"/></marker></defs><g class="root"><g class="clusters"/><g class="edgePaths"/><g class="edgeLabels"/><g class="nodes"><g transform="translate(159.41796875, 83.5)" id="classId-GenreDAO-0" class="node default"><g class="basic label-container"><path style="" fill="#ECECFF" stroke-width="0" stroke="none" d="M-151.41796875 -75.5 L151.41796875 -75.5 L151.41796875 75.5 L-151.41796875 75.5"/><path style="" fill="none" stroke-width="1.3" stroke="#9370DB" d="M-151.41796875 -75.5 C-32.206949440878674 -75.5, 87.00406986824265 -75.5, 151.41796875 -75.5 M-151.41796875 -75.5 C-33.285112495257565 -75.5, 84.84774375948487 -75.5, 151.41796875 -75.5 M151.41796875 -75.5 C151.41796875 -32.76749183354946, 151.41796875 9.965016332901087, 151.41796875 75.5 M151.41796875 -75.5 C151.41796875 -15.17472811932258, 151.41796875 45.15054376135484, 151.41796875 75.5 M151.41796875 75.5 C59.09515739846371 75.5, -33.227653953072576 75.5, -151.41796875 75.5 M151.41796875 75.5 C82.6119241873211 75.5, 13.805879624642188 75.5, -151.41796875 75.5 M-151.41796875 75.5 C-151.41796875 38.943069508541434, -151.41796875 2.3861390170828685, -151.41796875 -75.5 M-151.41796875 75.5 C-151.41796875 28.41612562430479, -151.41796875 -18.66774875139042, -151.41796875 -75.5"/></g><g transform="translate(0, -55.5)" class="annotation-group text"/><g transform="translate(-46.6953125, -55.5)" class="label-group text"><g transform="translate(0,-9.5)" style="font-weight: bolder" class="label"><g><rect style="stroke: none" class="background"/><text style="" y="-10.1"><tspan font-weight="" dy="1.1em" y="-0.1em" x="0" class="text-outer-tspan"><tspan font-weight="" class="text-inner-tspan" font-style="normal">GenreDAO</tspan></tspan></text></g></g></g><g transform="translate(-139.41796875, -12.5)" class="members-group text"><g transform="translate(0,-9.5)" style="" class="label"><g><rect style="stroke: none" class="background"/><text style="" y="-10.1"><tspan dy="1.1em" y="-0.1em" x="0" class="text-outer-tspan">- Connection connection</tspan></text></g></g></g><g transform="translate(-139.41796875, 30.5)" class="methods-group text"><g transform="translate(0,-9.5)" style="" class="label"><g><rect style="stroke: none" class="background"/><text style="" y="-10.1"><tspan dy="1.1em" y="-0.1em" x="0" class="text-outer-tspan">+ GenreDAO(Connection)</tspan></text></g></g><g transform="translate(0,12.5)" style="" class="label"><g><rect style="stroke: none" class="background"/><text style="" y="-10.1"><tspan dy="1.1em" y="-0.1em" x="0" class="text-outer-tspan">+ getGenres() : List&lt;String&gt;</tspan></text></g></g></g><g style="" class="divider"><path style="" fill="none" stroke-width="1.3" stroke="#9370DB" d="M-151.41796875 -32.5 C-54.07205718475478 -32.5, 43.273854380490434 -32.5, 151.41796875 -32.5 M-151.41796875 -32.5 C-61.572986325039835 -32.5, 28.27199609992033 -32.5, 151.41796875 -32.5"/></g><g style="" class="divider"><path style="" fill="none" stroke-width="1.3" stroke="#9370DB" d="M-151.41796875 10.5 C-64.37754450067325 10.5, 22.662879748653495 10.5, 151.41796875 10.5 M-151.41796875 10.5 C-49.873673626741606 10.5, 51.67062149651679 10.5, 151.41796875 10.5"/></g></g><g transform="translate(532.5234375, 83.5)" id="classId-UserDAO-1" class="node default"><g class="basic label-container"><path style="" fill="#ECECFF" stroke-width="0" stroke="none" d="M-171.6875 -75.5 L171.6875 -75.5 L171.6875 75.5 L-171.6875 75.5"/><path style="" fill="none" stroke-width="1.3" stroke="#9370DB" d="M-171.6875 -75.5 C-70.34834631307605 -75.5, 30.9908073738479 -75.5, 171.6875 -75.5 M-171.6875 -75.5 C-90.57616775071645 -75.5, -9.464835501432901 -75.5, 171.6875 -75.5 M171.6875 -75.5 C171.6875 -24.37906984201578, 171.6875 26.741860315968438, 171.6875 75.5 M171.6875 -75.5 C171.6875 -28.704188567494633, 171.6875 18.091622865010734, 171.6875 75.5 M171.6875 75.5 C38.25413879309488 75.5, -95.17922241381024 75.5, -171.6875 75.5 M171.6875 75.5 C44.98614279484096 75.5, -81.71521441031808 75.5, -171.6875 75.5 M-171.6875 75.5 C-171.6875 23.01528630991526, -171.6875 -29.469427380169478, -171.6875 -75.5 M-171.6875 75.5 C-171.6875 44.726269311333084, -171.6875 13.952538622666168, -171.6875 -75.5"/></g><g transform="translate(0, -55.5)" class="annotation-group text"/><g transform="translate(-40.265625, -55.5)" class="label-group text"><g transform="translate(0,-9.5)" style="font-weight: bolder" class="label"><g><rect style="stroke: none" class="background"/><text style="" y="-10.1"><tspan font-weight="" dy="1.1em" y="-0.1em" x="0" class="text-outer-tspan"><tspan font-weight="" class="text-inner-tspan" font-style="normal">UserDAO</tspan></tspan></text></g></g></g><g transform="translate(-159.6875, -12.5)" class="members-group text"><g transform="translate(0,-9.5)" style="" class="label"><g><rect style="stroke: none" class="background"/><text style="" y="-10.1"><tspan dy="1.1em" y="-0.1em" x="0" class="text-outer-tspan">- Connection connection</tspan></text></g></g></g><g transform="translate(-159.6875, 30.5)" class="methods-group text"><g transform="translate(0,-9.5)" style="" class="label"><g><rect style="stroke: none" class="background"/><text style="" y="-10.1"><tspan dy="1.1em" y="-0.1em" x="0" class="text-outer-tspan">+ UserDAO(Connection)</tspan></text></g></g><g transform="translate(0,12.5)" style="" class="label"><g><rect style="stroke: none" class="background"/><text style="" y="-10.1"><tspan dy="1.1em" y="-0.1em" x="0" class="text-outer-tspan">+ checkLogin(String, String) : User</tspan></text></g></g></g><g style="" class="divider"><path style="" fill="none" stroke-width="1.3" stroke="#9370DB" d="M-171.6875 -32.5 C-62.768254528931564 -32.5, 46.15099094213687 -32.5, 171.6875 -32.5 M-171.6875 -32.5 C-46.29236836354781 -32.5, 79.10276327290438 -32.5, 171.6875 -32.5"/></g><g style="" class="divider"><path style="" fill="none" stroke-width="1.3" stroke="#9370DB" d="M-171.6875 10.5 C-87.98162473175289 10.5, -4.275749463505775 10.5, 171.6875 10.5 M-171.6875 10.5 C-96.40854013858709 10.5, -21.12958027717417 10.5, 171.6875 10.5"/></g></g></g></g></g></svg>